{"asset":{"generator":"3D Builder","version":"2.0"},"scene":0,"scenes":[{"nodes":[0,1,4,7]}],"nodes":[{"mesh":0,"matrix":[10.974958419799805,1.0633991678332677E-6,-2.0874857398212043E-8,0,-2.0875472017678476E-8,1.7489585388830164E-6,-10.974949836730957,0,-1.1298634490231052E-6,10.974949836730957,2.1477339942066465E-6,0,-0.13362514972686768,0.048873748630285263,-0.0012748843291774392,1]},{"children":[2,3]},{"mesh":1,"matrix":[0.088329769670963287,-0.34424528479576111,1.9446178001203407E-8,0,3.0502356196393521E-8,9.8249472557654371E-8,-0.33276662230491638,0,0.32232463359832764,0.082705006003379822,5.8922672963035438E-8,0,-0.15327906608581543,0.0940522700548172,-0.0087043363600969315,1]},{"mesh":2,"matrix":[0.088329769670963287,-0.34424528479576111,1.9446178001203407E-8,0,3.0502356196393521E-8,9.8249472557654371E-8,-0.33276662230491638,0,0.32232463359832764,0.082705006003379822,5.8922672963035438E-8,0,-0.15327906608581543,0.0940522700548172,-0.0087043363600969315,1]},{"children":[5,6]},{"mesh":3,"matrix":[0.091810725629329681,0.34333336353302,-1.2447713970686891E-7,0,-3.9382339878102357E-7,-1.2484474609664176E-7,-0.33276662230491638,0,-0.32147052884101868,0.0859643742442131,3.5316224966663867E-7,0,-0.10916146636009216,0.0910220742225647,0.0028659573290497065,1]},{"mesh":4,"matrix":[0.091810725629329681,0.34333336353302,-1.2447713970686891E-7,0,-3.9382339878102357E-7,-1.2484474609664176E-7,-0.33276662230491638,0,-0.32147052884101868,0.0859643742442131,3.5316224966663867E-7,0,-0.10916146636009216,0.0910220742225647,0.0028659573290497065,1]},{"mesh":5,"matrix":[0.0098649356514215469,9.3549587631969189E-8,-0.99995231628417969,0,-0.99995243549346924,1.582520638976348E-7,-0.0098651796579360962,0,1.5732159397430223E-7,0.99999988079071045,9.5105903596959251E-8,0,-0.15689416229724884,-0.00048842944670468569,-0.00049691041931509972,1]}],"meshes":[{"primitives":[{"attributes":{"POSITION":0,"TEXCOORD_0":1},"mode":4,"indices":2,"material":0}]},{"primitives":[{"attributes":{"POSITION":3,"TEXCOORD_0":4},"mode":4,"indices":5,"material":1}]},{"primitives":[{"attributes":{"POSITION":6,"TEXCOORD_0":7},"mode":4,"indices":8,"material":1}]},{"primitives":[{"attributes":{"POSITION":9,"TEXCOORD_0":10},"mode":4,"indices":11,"material":1}]},{"primitives":[{"attributes":{"POSITION":12,"TEXCOORD_0":13},"mode":4,"indices":14,"material":1}]},{"primitives":[{"attributes":{"POSITION":15,"TEXCOORD_0":16},"mode":4,"indices":17,"material":2}]}],"materials":[{"pbrMetallicRoughness":{"baseColorFactor":[1,1,1,1],"metallicFactor":1,"roughnessFactor":1,"baseColorTexture":{"index":0,"texCoord":0},"metallicRoughnessTexture":{"index":1,"texCoord":0}},"alphaMode":"OPAQUE"},{"pbrMetallicRoughness":{"baseColorFactor":[1,1,1,1],"metallicFactor":1,"roughnessFactor":1,"baseColorTexture":{"index":2,"texCoord":0},"metallicRoughnessTexture":{"index":3,"texCoord":0}},"alphaMode":"OPAQUE"},{"pbrMetallicRoughness":{"baseColorFactor":[1,1,1,1],"metallicFactor":1,"roughnessFactor":1,"baseColorTexture":{"index":4,"texCoord":0},"metallicRoughnessTexture":{"index":5,"texCoord":0}},"alphaMode":"OPAQUE"}],"textures":[{"source":0,"sampler":0},{"source":1,"sampler":0},{"source":2,"sampler":0},{"source":3,"sampler":0},{"source":4,"sampler":0},{"source":5,"sampler":0}],"images":[{"uri":"2985109459_2048x2048_6195987693227547908.png"},{"uri":"2202222587_1024x1024_17319628118832143767.png"},{"uri":"409831038_2048x2048_11563080508590297124.png"},{"uri":"3921911462_1024x1024_12154559721164250551.png"},{"uri":"768766734_2048x2048_17026833529806663332.png"},{"uri":"4280847158_1024x1024_17618312742380616759.png"}],"samplers":[{"magFilter":9729,"wrapS":10497,"wrapT":10497}],"accessors":[{"bufferView":0,"byteOffset":0,"count":3000,"componentType":5126,"type":"VEC3","min":[-0.0037966188974678516,-0.0017604732420295477,-8.7407849846954377E-9],"max":[0.00399773707613349,0.00175774737726897,0.0037396601401269436]},{"bufferView":1,"byteOffset":0,"count":3000,"componentType":5126,"type":"VEC2"},{"bufferView":2,"byteOffset":0,"count":7980,"componentType":5125,"type":"SCALAR"},{"bufferView":3,"byteOffset":0,"count":15546,"componentType":5126,"type":"VEC3","min":[-0.033944625407457352,-0.0565992146730423,6.1268096033018082E-5],"max":[0.05251697450876236,0.016349589452147484,0.23064245283603668]},{"bufferView":4,"byteOffset":0,"count":15546,"componentType":5126,"type":"VEC2"},{"bufferView":5,"byteOffset":0,"count":76686,"componentType":5125,"type":"SCALAR"},{"bufferView":6,"byteOffset":0,"count":168,"componentType":5126,"type":"VEC3","min":[-0.00011182395974174142,-0.0301832128316164,0.15708407759666443],"max":[0.004714177455753088,-0.027897216379642487,0.16145287454128265]},{"bufferView":7,"byteOffset":0,"count":168,"componentType":5126,"type":"VEC2"},{"bufferView":8,"byteOffset":0,"count":906,"componentType":5125,"type":"SCALAR"},{"bufferView":9,"byteOffset":0,"count":15546,"componentType":5126,"type":"VEC3","min":[-0.033944625407457352,-0.0565992146730423,6.1268096033018082E-5],"max":[0.05251697450876236,0.016349589452147484,0.23064245283603668]},{"bufferView":10,"byteOffset":0,"count":15546,"componentType":5126,"type":"VEC2"},{"bufferView":11,"byteOffset":0,"count":76686,"componentType":5125,"type":"SCALAR"},{"bufferView":12,"byteOffset":0,"count":168,"componentType":5126,"type":"VEC3","min":[-0.00011182395974174142,-0.0301832128316164,0.15708407759666443],"max":[0.004714177455753088,-0.027897216379642487,0.16145287454128265]},{"bufferView":13,"byteOffset":0,"count":168,"componentType":5126,"type":"VEC2"},{"bufferView":14,"byteOffset":0,"count":906,"componentType":5125,"type":"SCALAR"},{"bufferView":15,"byteOffset":0,"count":24123,"componentType":5126,"type":"VEC3","min":[-0.032647948712110519,-0.080664597451686859,0.00048842822434380651],"max":[0.031015839427709579,0.10635945945978165,0.0702807754278183]},{"bufferView":16,"byteOffset":0,"count":24123,"componentType":5126,"type":"VEC2"},{"bufferView":17,"byteOffset":0,"count":142620,"componentType":5125,"type":"SCALAR"}],"bufferViews":[{"buffer":0,"byteOffset":0,"byteLength":36000,"byteStride":12,"target":34962},{"buffer":0,"byteOffset":36000,"byteLength":24000,"byteStride":8,"target":34962},{"buffer":0,"byteOffset":60000,"byteLength":31920,"target":34963},{"buffer":0,"byteOffset":91920,"byteLength":186552,"byteStride":12,"target":34962},{"buffer":0,"byteOffset":278472,"byteLength":124368,"byteStride":8,"target":34962},{"buffer":0,"byteOffset":402840,"byteLength":306744,"target":34963},{"buffer":0,"byteOffset":709584,"byteLength":2016,"byteStride":12,"target":34962},{"buffer":0,"byteOffset":711600,"byteLength":1344,"byteStride":8,"target":34962},{"buffer":0,"byteOffset":712944,"byteLength":3624,"target":34963},{"buffer":0,"byteOffset":716568,"byteLength":186552,"byteStride":12,"target":34962},{"buffer":0,"byteOffset":903120,"byteLength":124368,"byteStride":8,"target":34962},{"buffer":0,"byteOffset":1027488,"byteLength":306744,"target":34963},{"buffer":0,"byteOffset":1334232,"byteLength":2016,"byteStride":12,"target":34962},{"buffer":0,"byteOffset":1336248,"byteLength":1344,"byteStride":8,"target":34962},{"buffer":0,"byteOffset":1337592,"byteLength":3624,"target":34963},{"buffer":0,"byteOffset":1341216,"byteLength":289476,"byteStride":12,"target":34962},{"buffer":0,"byteOffset":1630692,"byteLength":192984,"byteStride":8,"target":34962},{"buffer":0,"byteOffset":1823676,"byteLength":570480,"target":34963}],"buffers":[{"byteLength":2394156,"uri":"Mesa.bin"}]}